<svg width="13" height="13" viewBox="0 0 13 13" fill="none" xmlns="http://www.w3.org/2000/svg">
<path fill-rule="evenodd" clip-rule="evenodd" d="M0 2.16667C0 1.59203 0.228273 1.04093 0.634602 0.634602C1.04093 0.228273 1.59203 0 2.16667 0H10.8333C11.408 0 11.9591 0.228273 12.3654 0.634602C12.7717 1.04093 13 1.59203 13 2.16667V10.8333C13 11.408 12.7717 11.9591 12.3654 12.3654C11.9591 12.7717 11.408 13 10.8333 13H2.16667C1.59203 13 1.04093 12.7717 0.634602 12.3654C0.228273 11.9591 0 11.408 0 10.8333V2.16667ZM7.22222 3.61111C7.22222 3.41957 7.14613 3.23587 7.01069 3.10042C6.87525 2.96498 6.69155 2.88889 6.5 2.88889C6.30845 2.88889 6.12475 2.96498 5.98931 3.10042C5.85387 3.23587 5.77778 3.41957 5.77778 3.61111V9.38889C5.77778 9.58043 5.85387 9.76413 5.98931 9.89958C6.12475 10.035 6.30845 10.1111 6.5 10.1111C6.69155 10.1111 6.87525 10.035 7.01069 9.89958C7.14613 9.76413 7.22222 9.58043 7.22222 9.38889V3.61111ZM4.33333 5.77778C4.33333 5.58623 4.25724 5.40253 4.1218 5.26709C3.98636 5.13165 3.80266 5.05556 3.61111 5.05556C3.41957 5.05556 3.23587 5.13165 3.10042 5.26709C2.96498 5.40253 2.88889 5.58623 2.88889 5.77778V9.38889C2.88889 9.58043 2.96498 9.76413 3.10042 9.89958C3.23587 10.035 3.41957 10.1111 3.61111 10.1111C3.80266 10.1111 3.98636 10.035 4.1218 9.89958C4.25724 9.76413 4.33333 9.58043 4.33333 9.38889V5.77778ZM10.1111 7.94444C10.1111 7.7529 10.035 7.5692 9.89958 7.43376C9.76413 7.29831 9.58043 7.22222 9.38889 7.22222C9.19734 7.22222 9.01364 7.29831 8.8782 7.43376C8.74276 7.5692 8.66667 7.7529 8.66667 7.94444V9.38889C8.66667 9.58043 8.74276 9.76413 8.8782 9.89958C9.01364 10.035 9.19734 10.1111 9.38889 10.1111C9.58043 10.1111 9.76413 10.035 9.89958 9.89958C10.035 9.76413 10.1111 9.58043 10.1111 9.38889V7.94444Z" fill="black"/>
</svg>
