<svg width="11" height="12" viewBox="0 0 11 12" fill="none" xmlns="http://www.w3.org/2000/svg">
<path d="M9.71633 7.50016C10.1133 6.76267 10.3203 5.93972 10.3191 5.10419C10.3191 2.28518 8.00913 0 5.15955 0C2.30996 0 7.56864e-06 2.28518 7.56864e-06 5.10419C-0.00208102 6.30826 0.428157 7.47394 1.21402 8.39339L1.22009 8.4009C1.22221 8.4027 1.22403 8.4051 1.22555 8.4069H1.21402L4.27575 11.6225C4.38925 11.7417 4.52618 11.8367 4.67814 11.9016C4.8301 11.9665 4.99387 12 5.15939 12C5.32491 12 5.48869 11.9665 5.64065 11.9016C5.79261 11.8367 5.92954 11.7417 6.04304 11.6225L9.10508 8.4069H9.09354L9.0984 8.4012L9.099 8.4006C9.12086 8.37478 9.14271 8.34895 9.16426 8.32253C9.37477 8.06657 9.55976 7.79107 9.71663 7.49986L9.71633 7.50016ZM5.16076 7.05579C4.6778 7.05579 4.21462 6.86599 3.87311 6.52815C3.5316 6.19031 3.33975 5.7321 3.33975 5.25431C3.33975 4.77653 3.5316 4.31832 3.87311 3.98048C4.21462 3.64263 4.6778 3.45283 5.16076 3.45283C5.64372 3.45283 6.1069 3.64263 6.44841 3.98048C6.78992 4.31832 6.98177 4.77653 6.98177 5.25431C6.98177 5.7321 6.78992 6.19031 6.44841 6.52815C6.1069 6.86599 5.64372 7.05579 5.16076 7.05579Z" fill="#878787"/>
</svg>
