<svg width="29" height="29" viewBox="0 0 29 29" fill="none" xmlns="http://www.w3.org/2000/svg">
<path fill-rule="evenodd" clip-rule="evenodd" d="M12.5873 22.9355C13.1455 23.5572 13.8621 23.8988 14.6056 23.8988C15.3523 23.8988 16.0732 23.5572 16.6325 22.9344C16.9321 22.6036 17.4428 22.5767 17.7736 22.8751C18.1055 23.1736 18.1325 23.6855 17.834 24.0163C16.9633 24.9829 15.8178 25.5152 14.6067 25.5152H14.6045C13.3966 25.5141 12.2533 24.9818 11.3858 24.0152C11.0873 23.6844 11.1143 23.1726 11.4462 22.8751C11.7781 22.5756 12.2888 22.6025 12.5873 22.9355Z" fill="#A9A9A9" stroke="#A9A9A9" stroke-width="0.586229"/>
<path d="M14.4995 2.92692C10.5963 2.92692 7.42066 6.10257 7.42031 10.0061C7.42031 13.063 7.42031 15.0833 5.00354 17.5C4.59873 17.9048 4.47762 18.5139 4.69654 19.0432C4.91582 19.5721 5.43172 19.9172 6.00473 19.9175L16.0456 19.9175C15.9665 20.1401 18.7621 18.6983 18.7622 18.9479C18.7622 20.1206 18.0197 19.3781 19.1924 19.3781C20.365 19.3781 18.7622 20.1206 18.7622 18.9479C18.7622 18.6983 13.9373 19.9156 13.3509 19.9175L22.9946 19.9171C23.5673 19.9171 24.0835 19.5724 24.3025 19.0431C24.5217 18.5142 24.4006 17.9051 23.9955 17.5C21.5783 15.0829 21.5787 11.6539 21.5787 10.0061C21.5783 6.10257 18.4027 2.92692 14.4995 2.92692ZM20.6649 19.7748C20.6649 20.1653 18.6247 19.0457 18.2342 19.0457C17.8438 19.0457 16.2913 19.8454 16.2913 19.4549C16.2913 19.0645 15.8703 19.8915 16.2607 19.8915C16.6512 19.8915 20.6649 19.3844 20.6649 19.7748ZM20.163 10.0061C20.163 11.7267 20.163 15.6692 22.9949 18.5012C20.163 18.5012 8.83663 18.5012 6.00469 18.5012C8.83627 15.6696 8.83627 13.134 8.83631 10.0064C8.83631 6.87882 11.3719 4.34324 14.4998 4.34289C17.6277 4.34257 20.1633 6.87815 20.163 10.0061Z" fill="#A9A9A9"/>
<path d="M18.7622 18.9479C18.7621 18.6983 15.9665 20.1401 16.0456 19.9175L6.00473 19.9175C5.43172 19.9172 4.91582 19.5721 4.69654 19.0432C4.47762 18.5139 4.59873 17.9048 5.00354 17.5C7.42031 15.0833 7.42031 13.063 7.42031 10.0061C7.42066 6.10257 10.5963 2.92692 14.4995 2.92692C18.4027 2.92692 21.5783 6.10257 21.5787 10.0061C21.5787 11.6539 21.5783 15.0829 23.9955 17.5C24.4006 17.9051 24.5217 18.5142 24.3025 19.0431C24.0835 19.5724 23.5673 19.9171 22.9946 19.9171L13.3509 19.9175C13.9373 19.9156 18.7622 18.6983 18.7622 18.9479ZM18.7622 18.9479C18.7622 20.1206 18.0197 19.3781 19.1924 19.3781C20.365 19.3781 18.7622 20.1206 18.7622 18.9479ZM20.6649 19.7748C20.6649 20.1653 18.6247 19.0457 18.2342 19.0457C17.8438 19.0457 16.2913 19.8454 16.2913 19.4549C16.2913 19.0645 15.8703 19.8915 16.2607 19.8915C16.6512 19.8915 20.6649 19.3844 20.6649 19.7748ZM20.163 10.0061C20.163 11.7267 20.163 15.6692 22.9949 18.5012C20.163 18.5012 8.83663 18.5012 6.00469 18.5012C8.83627 15.6696 8.83627 13.134 8.83631 10.0064C8.83631 6.87882 11.3719 4.34324 14.4998 4.34289C17.6277 4.34257 20.1633 6.87815 20.163 10.0061Z" stroke="#A9A9A9" stroke-width="0.937966"/>
</svg>
