<svg width="25" height="30" viewBox="0 0 25 30" fill="none" xmlns="http://www.w3.org/2000/svg">
<path d="M2 2V28.25L4.625 26.9375L7.25 28.25L9.875 26.9375L12.5 28.25L15.125 26.9375L17.75 28.25L20.375 26.9375L23 28.25V2L20.375 3.3125L17.75 2L15.125 3.3125L12.5 2L9.875 3.3125L7.25 2L4.625 3.3125L2 2Z" stroke="#BCBEC0" stroke-width="2.625" stroke-linecap="round" stroke-linejoin="round"/>
<path fill-rule="evenodd" clip-rule="evenodd" d="M12.1719 5.9375C12.4329 5.9375 12.6833 6.04121 12.8679 6.22582C13.0525 6.41042 13.1562 6.6608 13.1562 6.92188V7.33794C15.2956 7.72119 17.0938 9.329 17.0938 11.5156C17.0938 11.7767 16.99 12.0271 16.8054 12.2117C16.6208 12.3963 16.3704 12.5 16.1094 12.5C15.8483 12.5 15.5979 12.3963 15.4133 12.2117C15.2287 12.0271 15.125 11.7767 15.125 11.5156C15.125 10.6258 14.3847 9.68206 13.1562 9.34606V13.9004C15.2956 14.2837 17.0938 15.8915 17.0938 18.0781C17.0938 20.2648 15.2956 21.8726 13.1562 22.2558V22.6719C13.1562 22.9329 13.0525 23.1833 12.8679 23.3679C12.6833 23.5525 12.4329 23.6562 12.1719 23.6562C11.9108 23.6562 11.6604 23.5525 11.4758 23.3679C11.2912 23.1833 11.1875 22.9329 11.1875 22.6719V22.2558C9.04813 21.8726 7.25 20.2648 7.25 18.0781C7.25 17.8171 7.35371 17.5667 7.53832 17.3821C7.72292 17.1975 7.9733 17.0938 8.23438 17.0938C8.49545 17.0938 8.74583 17.1975 8.93043 17.3821C9.11504 17.5667 9.21875 17.8171 9.21875 18.0781C9.21875 18.968 9.959 19.9117 11.1875 20.2464V15.6933C9.04813 15.3101 7.25 13.7023 7.25 11.5156C7.25 9.329 9.04813 7.72119 11.1875 7.33794V6.92188C11.1875 6.6608 11.2912 6.41042 11.4758 6.22582C11.6604 6.04121 11.9108 5.9375 12.1719 5.9375ZM11.1875 9.34606C9.959 9.68206 9.21875 10.6258 9.21875 11.5156C9.21875 12.4055 9.959 13.3492 11.1875 13.6839V9.34606ZM15.125 18.0781C15.125 17.1882 14.3847 16.2446 13.1562 15.9099V20.2464C14.3847 19.9117 15.125 18.968 15.125 18.0781Z" fill="#BCBEC0"/>
</svg>
